<svg version="1.1"  xmlns="http://www.w3.org/2000/svg" width="400px" height="200px">
    <path fill="#" d="M27.5146484375,100.1025390625q-5.9814453125,0-9.2626953125,4.49462890625t-3.28125,12.52685546875q0,16.7138671875,12.5439453125,16.7138671875q5.263671875,0,12.7490234375-2.6318359375l0,8.88671875q-6.15234375,2.5634765625-13.740234375,2.5634765625q-10.9033203125,0-16.6796875-6.61376953125t-5.7763671875-18.98681640625q0-7.79296875,2.8369140625-13.65478515625t8.15185546875-8.9892578125t12.45849609375-3.12744140625q7.2802734375,0,14.62890625,3.5205078125l-3.41796875,8.61328125q-2.802734375-1.3330078125-5.6396484375-2.32421875t-5.5712890625-0.9912109375z M65.309521484375,141.97265625l-10.4248046875,0l0-53.18359375l10.4248046875,0l0,53.18359375z M89.36416015625,122.7978515625q0,5.673828125,1.86279296875,8.5791015625t6.06689453125,2.9052734375q4.169921875,0,5.99853515625-2.88818359375t1.82861328125-8.59619140625q0-5.673828125-1.845703125-8.5107421875t-6.0498046875-2.8369140625q-4.169921875,0-6.015625,2.81982421875t-1.845703125,8.52783203125z M115.78505859375,122.7978515625q0,9.3310546875-4.921875,14.5947265625t-13.7060546875,5.263671875q-5.5029296875,0-9.70703125-2.40966796875t-6.4599609375-6.92138671875t-2.255859375-10.52734375q0-9.365234375,4.8876953125-14.560546875t13.740234375-5.1953125q5.5029296875,0,9.70703125,2.392578125t6.4599609375,6.8701171875t2.255859375,10.4931640625z M156.28012695312,141.97265625l-1.4013671875-4.8876953125l-0.546875,0q-1.6748046875,2.666015625-4.7509765625,4.11865234375t-7.0068359375,1.45263671875q-6.7333984375,0-10.1513671875-3.60595703125t-3.41796875-10.37353515625l0-24.9169921875l10.4248046875,0l0,22.3193359375q0,4.1357421875,1.4697265625,6.20361328125t4.6826171875,2.06787109375q4.375,0,6.3232421875-2.92236328125t1.9482421875-9.68994140625l0-17.978515625l10.4248046875,0l0,38.212890625l-7.998046875,0z M192.1267578125,142.65625q-6.7333984375,0-10.57861328125-5.2294921875t-3.84521484375-14.4921875q0-9.3994140625,3.91357421875-14.64599609375t10.78369140625-5.24658203125q7.2119140625,0,11.005859375,5.60546875l0.341796875,0q-0.7861328125-4.2724609375-0.7861328125-7.6220703125l0-12.236328125l10.458984375,0l0,53.18359375l-7.998046875,0l-2.0166015625-4.9560546875l-0.4443359375,0q-3.5546875,5.6396484375-10.8349609375,5.6396484375z M195.783984375,134.3505859375q3.9990234375,0,5.86181640625-2.32421875t2.03369140625-7.8955078125l0-1.1279296875q0-6.15234375-1.89697265625-8.818359375t-6.16943359375-2.666015625q-3.486328125,0-5.41748046875,2.95654296875t-1.93115234375,8.59619140625t1.9482421875,8.45947265625t5.5712890625,2.81982421875z"/><path fill="#00f7ff" d="M244.56640625,141.97265625l-10.595703125,0l0-41.15234375l-13.5693359375,0l0-8.818359375l37.734375,0l0,8.818359375l-13.5693359375,0l0,41.15234375z M291.14545898438,103.0419921875q2.119140625,0,3.5205078125,0.3076171875l-0.7861328125,9.775390625q-1.2646484375-0.341796875-3.076171875-0.341796875q-4.990234375,0-7.77587890625,2.5634765625t-2.78564453125,7.177734375l0,19.4482421875l-10.4248046875,0l0-38.212890625l7.8955078125,0l1.5380859375,6.42578125l0.5126953125,0q1.77734375-3.212890625,4.80224609375-5.17822265625t6.57958984375-1.96533203125z M330.68349609375,141.97265625l-2.0166015625-5.1953125l-0.2734375,0q-2.6318359375,3.3154296875-5.41748046875,4.59716796875t-7.26318359375,1.28173828125q-5.5029296875,0-8.66455078125-3.14453125t-3.16162109375-8.955078125q0-6.083984375,4.25537109375-8.97216796875t12.83447265625-3.19580078125l6.630859375-0.205078125l0-1.6748046875q0-5.810546875-5.947265625-5.810546875q-4.580078125,0-10.7666015625,2.7685546875l-3.4521484375-7.041015625q6.5966796875-3.4521484375,14.62890625-3.4521484375q7.6904296875,0,11.7919921875,3.349609375t4.1015625,10.185546875l0,25.4638671875l-7.2802734375,0z M327.60732421875,124.267578125l-4.033203125,0.13671875q-4.5458984375,0.13671875-6.767578125,1.640625t-2.2216796875,4.580078125q0,4.4091796875,5.05859375,4.4091796875q3.623046875,0,5.79345703125-2.0849609375t2.17041015625-5.537109375l0-3.14453125z M353.06333007812,93.8818359375q0-5.0927734375,5.673828125-5.0927734375t5.673828125,5.0927734375q0,2.4267578125-1.41845703125,3.77685546875t-4.25537109375,1.35009765625q-5.673828125,0-5.673828125-5.126953125z M363.93247070312,141.97265625l-10.4248046875,0l0-38.212890625l10.4248046875,0l0,38.212890625z M390.10625,141.97265625l-10.4248046875,0l0-53.18359375l10.4248046875,0l0,53.18359375z"/>
</svg>
